<svg xmlns="http://www.w3.org/2000/svg" viewBox="0 0 64 64">
<path d="M22 28 Q14 16, 28 18 Q32 22, 30 30 L24 32 Z" fill="#F5F0F8" stroke="#9B8FB5" stroke-width="0.8" stroke-linejoin="round"/>
<path d="M16 38 Q14 30, 22 28 L38 28 Q48 30, 46 38 Q42 44, 30 44 Q20 42, 16 38 Z" fill="white" stroke="#9B8FB5" stroke-width="0.8" stroke-linejoin="round"/>
<path d="M14 36 L6 34 L8 40 L14 40 Z" fill="#F5F0F8" stroke="#9B8FB5" stroke-width="0.8" stroke-linejoin="round"/>
<circle cx="44" cy="26" r="6" fill="white" stroke="#9B8FB5" stroke-width="0.8"/>
<circle cx="46" cy="24.5" r="1" fill="#5A4E6B"/>
<polygon points="50,26 54,27 50,28" fill="#E8A968"/>
<path d="M53 26 Q58 24, 60 21" stroke="#7BA582" stroke-width="1.2" fill="none"/>
<ellipse cx="56" cy="23" rx="2" ry="1.2" fill="#A3C49B" transform="rotate(-30 56 23)"/>
</svg>
